# xmcd
#
# Track frame offsets: 
#        150
#        24090
#        47727
#        81129
#        102927
#        121895
#        142182
#        162822
#        181627
#        204997
#
# Disc length: 3049 seconds
#
# Revision: 1
# Processed by: cddbd v1.5.2PL0 Copyright (c) Steve Scherf et al.
# Submitted via: ExactAudioCopy v0.99pb5
#
DISCID=750be70a
DTITLE=Barbara Thompson's Paraphernalia - Lady Saxophone
DYEAR=1996
DGENRE=Jazz
TTITLE0=In Memory
TTITLE1=All In Love Is Fair
TTITLE2=Falling Stars
TTITLE3=I Do It For Your Love
TTITLE4=Reuben, Reuben
TTITLE5=Out On A Limb
TTITLE6=Wastelands
TTITLE7=Waiting For The Rain
TTITLE8=What Am I Here For
TTITLE9=Lady S.
EXTD=YEAR: 1996
EXTT0=
EXTT1=
EXTT2=
EXTT3=
EXTT4=
EXTT5=
EXTT6=
EXTT7=
EXTT8=
EXTT9=
PLAYORDER=
